<?xml version="1.0" encoding="utf-8" standalone="no"?>
<!DOCTYPE svg PUBLIC "-//W3C//DTD SVG 1.1//EN"
  "http://www.w3.org/Graphics/SVG/1.1/DTD/svg11.dtd">
<svg xmlns:xlink="http://www.w3.org/1999/xlink" width="576pt" height="360pt" viewBox="0 0 576 360" xmlns="http://www.w3.org/2000/svg" version="1.1">
 <metadata>
  <rdf:RDF xmlns:dc="http://purl.org/dc/elements/1.1/" xmlns:cc="http://creativecommons.org/ns#" xmlns:rdf="http://www.w3.org/1999/02/22-rdf-syntax-ns#">
   <cc:Work>
    <dc:type rdf:resource="http://purl.org/dc/dcmitype/StillImage"/>
    <dc:date>2026-06-26T21:43:14.795176</dc:date>
    <dc:format>image/svg+xml</dc:format>
    <dc:creator>
     <cc:Agent>
      <dc:title>Matplotlib v3.11.0, https://matplotlib.org/</dc:title>
     </cc:Agent>
    </dc:creator>
   </cc:Work>
  </rdf:RDF>
 </metadata>
 <defs>
  <style type="text/css">*{stroke-linejoin: round; stroke-linecap: butt}</style>
 </defs>
 <g id="figure_1">
  <g id="patch_1">
   <path d="M 0 360 
L 576 360 
L 576 0 
L 0 0 
z
" style="fill: #ffffff"/>
  </g>
  <g id="axes_1">
   <g id="patch_2">
    <path d="M 51.24 317.877656 
L 565.2 317.877656 
L 565.2 26.16 
L 51.24 26.16 
z
" style="fill: #ffffff"/>
   </g>
   <g id="PathCollection_1">
    <defs>
     <path id="me357a7dc1b" d="M 0 3 
C 0.795609 3 1.55874 2.683901 2.12132 2.12132 
C 2.683901 1.55874 3 0.795609 3 0 
C 3 -0.795609 2.683901 -1.55874 2.12132 -2.12132 
C 1.55874 -2.683901 0.795609 -3 0 -3 
C -0.795609 -3 -1.55874 -2.683901 -2.12132 -2.12132 
C -2.683901 -1.55874 -3 -0.795609 -3 0 
C -3 0.795609 -2.683901 1.55874 -2.12132 2.12132 
C -1.55874 2.683901 -0.795609 3 0 3 
z
" style="stroke: #4169e1; stroke-opacity: 0.7"/>
    </defs>
    <g clip-path="url(#pbefa7de598)">
     <use xlink:href="#me357a7dc1b" x="110.428826" y="234.901494" style="fill: #4169e1; fill-opacity: 0.7; stroke: #4169e1; stroke-opacity: 0.7"/>
     <use xlink:href="#me357a7dc1b" x="447.071252" y="98.992243" style="fill: #4169e1; fill-opacity: 0.7; stroke: #4169e1; stroke-opacity: 0.7"/>
     <use xlink:href="#me357a7dc1b" x="283.676012" y="172.196751" style="fill: #4169e1; fill-opacity: 0.7; stroke: #4169e1; stroke-opacity: 0.7"/>
     <use xlink:href="#me357a7dc1b" x="420.061021" y="122.672063" style="fill: #4169e1; fill-opacity: 0.7; stroke: #4169e1; stroke-opacity: 0.7"/>
     <use xlink:href="#me357a7dc1b" x="541.838182" y="100.924311" style="fill: #4169e1; fill-opacity: 0.7; stroke: #4169e1; stroke-opacity: 0.7"/>
     <use xlink:href="#me357a7dc1b" x="331.562461" y="138.635133" style="fill: #4169e1; fill-opacity: 0.7; stroke: #4169e1; stroke-opacity: 0.7"/>
     <use xlink:href="#me357a7dc1b" x="313.680199" y="159.522889" style="fill: #4169e1; fill-opacity: 0.7; stroke: #4169e1; stroke-opacity: 0.7"/>
     <use xlink:href="#me357a7dc1b" x="108.39199" y="210.342606" style="fill: #4169e1; fill-opacity: 0.7; stroke: #4169e1; stroke-opacity: 0.7"/>
     <use xlink:href="#me357a7dc1b" x="202.35375" y="209.672696" style="fill: #4169e1; fill-opacity: 0.7; stroke: #4169e1; stroke-opacity: 0.7"/>
     <use xlink:href="#me357a7dc1b" x="313.087896" y="201.840636" style="fill: #4169e1; fill-opacity: 0.7; stroke: #4169e1; stroke-opacity: 0.7"/>
     <use xlink:href="#me357a7dc1b" x="398.8967" y="126.120427" style="fill: #4169e1; fill-opacity: 0.7; stroke: #4169e1; stroke-opacity: 0.7"/>
     <use xlink:href="#me357a7dc1b" x="458.468047" y="60.895961" style="fill: #4169e1; fill-opacity: 0.7; stroke: #4169e1; stroke-opacity: 0.7"/>
     <use xlink:href="#me357a7dc1b" x="256.180402" y="188.842496" style="fill: #4169e1; fill-opacity: 0.7; stroke: #4169e1; stroke-opacity: 0.7"/>
     <use xlink:href="#me357a7dc1b" x="105.466371" y="259.881664" style="fill: #4169e1; fill-opacity: 0.7; stroke: #4169e1; stroke-opacity: 0.7"/>
     <use xlink:href="#me357a7dc1b" x="211.782381" y="225.124663" style="fill: #4169e1; fill-opacity: 0.7; stroke: #4169e1; stroke-opacity: 0.7"/>
     <use xlink:href="#me357a7dc1b" x="509.114125" y="104.85173" style="fill: #4169e1; fill-opacity: 0.7; stroke: #4169e1; stroke-opacity: 0.7"/>
     <use xlink:href="#me357a7dc1b" x="176.013344" y="218.437903" style="fill: #4169e1; fill-opacity: 0.7; stroke: #4169e1; stroke-opacity: 0.7"/>
     <use xlink:href="#me357a7dc1b" x="290.237824" y="193.952764" style="fill: #4169e1; fill-opacity: 0.7; stroke: #4169e1; stroke-opacity: 0.7"/>
     <use xlink:href="#me357a7dc1b" x="519.454621" y="41.600816" style="fill: #4169e1; fill-opacity: 0.7; stroke: #4169e1; stroke-opacity: 0.7"/>
     <use xlink:href="#me357a7dc1b" x="85.832162" y="253.497352" style="fill: #4169e1; fill-opacity: 0.7; stroke: #4169e1; stroke-opacity: 0.7"/>
     <use xlink:href="#me357a7dc1b" x="361.25174" y="136.087784" style="fill: #4169e1; fill-opacity: 0.7; stroke: #4169e1; stroke-opacity: 0.7"/>
     <use xlink:href="#me357a7dc1b" x="528.50856" y="39.419893" style="fill: #4169e1; fill-opacity: 0.7; stroke: #4169e1; stroke-opacity: 0.7"/>
     <use xlink:href="#me357a7dc1b" x="184.107533" y="173.357496" style="fill: #4169e1; fill-opacity: 0.7; stroke: #4169e1; stroke-opacity: 0.7"/>
     <use xlink:href="#me357a7dc1b" x="336.344114" y="153.349649" style="fill: #4169e1; fill-opacity: 0.7; stroke: #4169e1; stroke-opacity: 0.7"/>
     <use xlink:href="#me357a7dc1b" x="508.891573" y="72.834492" style="fill: #4169e1; fill-opacity: 0.7; stroke: #4169e1; stroke-opacity: 0.7"/>
     <use xlink:href="#me357a7dc1b" x="137.634045" y="209.48309" style="fill: #4169e1; fill-opacity: 0.7; stroke: #4169e1; stroke-opacity: 0.7"/>
     <use xlink:href="#me357a7dc1b" x="324.345862" y="157.60667" style="fill: #4169e1; fill-opacity: 0.7; stroke: #4169e1; stroke-opacity: 0.7"/>
     <use xlink:href="#me357a7dc1b" x="432.952703" y="151.717182" style="fill: #4169e1; fill-opacity: 0.7; stroke: #4169e1; stroke-opacity: 0.7"/>
     <use xlink:href="#me357a7dc1b" x="394.008494" y="110.519532" style="fill: #4169e1; fill-opacity: 0.7; stroke: #4169e1; stroke-opacity: 0.7"/>
     <use xlink:href="#me357a7dc1b" x="297.71547" y="142.82342" style="fill: #4169e1; fill-opacity: 0.7; stroke: #4169e1; stroke-opacity: 0.7"/>
     <use xlink:href="#me357a7dc1b" x="171.929169" y="203.417964" style="fill: #4169e1; fill-opacity: 0.7; stroke: #4169e1; stroke-opacity: 0.7"/>
     <use xlink:href="#me357a7dc1b" x="308.726053" y="180.724282" style="fill: #4169e1; fill-opacity: 0.7; stroke: #4169e1; stroke-opacity: 0.7"/>
     <use xlink:href="#me357a7dc1b" x="252.086571" y="186.099202" style="fill: #4169e1; fill-opacity: 0.7; stroke: #4169e1; stroke-opacity: 0.7"/>
     <use xlink:href="#me357a7dc1b" x="302.331696" y="175.50849" style="fill: #4169e1; fill-opacity: 0.7; stroke: #4169e1; stroke-opacity: 0.7"/>
     <use xlink:href="#me357a7dc1b" x="248.979372" y="189.729893" style="fill: #4169e1; fill-opacity: 0.7; stroke: #4169e1; stroke-opacity: 0.7"/>
     <use xlink:href="#me357a7dc1b" x="474.820968" y="63.818455" style="fill: #4169e1; fill-opacity: 0.7; stroke: #4169e1; stroke-opacity: 0.7"/>
     <use xlink:href="#me357a7dc1b" x="441.678505" y="71.447371" style="fill: #4169e1; fill-opacity: 0.7; stroke: #4169e1; stroke-opacity: 0.7"/>
     <use xlink:href="#me357a7dc1b" x="224.149872" y="176.981426" style="fill: #4169e1; fill-opacity: 0.7; stroke: #4169e1; stroke-opacity: 0.7"/>
     <use xlink:href="#me357a7dc1b" x="347.891702" y="131.118349" style="fill: #4169e1; fill-opacity: 0.7; stroke: #4169e1; stroke-opacity: 0.7"/>
     <use xlink:href="#me357a7dc1b" x="205.994787" y="183.954125" style="fill: #4169e1; fill-opacity: 0.7; stroke: #4169e1; stroke-opacity: 0.7"/>
     <use xlink:href="#me357a7dc1b" x="290.581816" y="166.689935" style="fill: #4169e1; fill-opacity: 0.7; stroke: #4169e1; stroke-opacity: 0.7"/>
     <use xlink:href="#me357a7dc1b" x="242.801617" y="186.954732" style="fill: #4169e1; fill-opacity: 0.7; stroke: #4169e1; stroke-opacity: 0.7"/>
     <use xlink:href="#me357a7dc1b" x="388.451882" y="143.563554" style="fill: #4169e1; fill-opacity: 0.7; stroke: #4169e1; stroke-opacity: 0.7"/>
     <use xlink:href="#me357a7dc1b" x="251.113592" y="183.225838" style="fill: #4169e1; fill-opacity: 0.7; stroke: #4169e1; stroke-opacity: 0.7"/>
     <use xlink:href="#me357a7dc1b" x="293.57215" y="112.72908" style="fill: #4169e1; fill-opacity: 0.7; stroke: #4169e1; stroke-opacity: 0.7"/>
     <use xlink:href="#me357a7dc1b" x="418.079733" y="96.073413" style="fill: #4169e1; fill-opacity: 0.7; stroke: #4169e1; stroke-opacity: 0.7"/>
     <use xlink:href="#me357a7dc1b" x="271.515056" y="181.851957" style="fill: #4169e1; fill-opacity: 0.7; stroke: #4169e1; stroke-opacity: 0.7"/>
     <use xlink:href="#me357a7dc1b" x="507.597315" y="92.018776" style="fill: #4169e1; fill-opacity: 0.7; stroke: #4169e1; stroke-opacity: 0.7"/>
     <use xlink:href="#me357a7dc1b" x="160.256199" y="237.744086" style="fill: #4169e1; fill-opacity: 0.7; stroke: #4169e1; stroke-opacity: 0.7"/>
     <use xlink:href="#me357a7dc1b" x="428.507431" y="103.463865" style="fill: #4169e1; fill-opacity: 0.7; stroke: #4169e1; stroke-opacity: 0.7"/>
     <use xlink:href="#me357a7dc1b" x="276.003977" y="163.042934" style="fill: #4169e1; fill-opacity: 0.7; stroke: #4169e1; stroke-opacity: 0.7"/>
     <use xlink:href="#me357a7dc1b" x="277.955827" y="204.896093" style="fill: #4169e1; fill-opacity: 0.7; stroke: #4169e1; stroke-opacity: 0.7"/>
     <use xlink:href="#me357a7dc1b" x="377.438158" y="120.94786" style="fill: #4169e1; fill-opacity: 0.7; stroke: #4169e1; stroke-opacity: 0.7"/>
     <use xlink:href="#me357a7dc1b" x="324.103584" y="166.451067" style="fill: #4169e1; fill-opacity: 0.7; stroke: #4169e1; stroke-opacity: 0.7"/>
     <use xlink:href="#me357a7dc1b" x="272.421312" y="140.403998" style="fill: #4169e1; fill-opacity: 0.7; stroke: #4169e1; stroke-opacity: 0.7"/>
     <use xlink:href="#me357a7dc1b" x="74.601818" y="247.704675" style="fill: #4169e1; fill-opacity: 0.7; stroke: #4169e1; stroke-opacity: 0.7"/>
     <use xlink:href="#me357a7dc1b" x="118.062044" y="194.351566" style="fill: #4169e1; fill-opacity: 0.7; stroke: #4169e1; stroke-opacity: 0.7"/>
     <use xlink:href="#me357a7dc1b" x="413.328855" y="128.773026" style="fill: #4169e1; fill-opacity: 0.7; stroke: #4169e1; stroke-opacity: 0.7"/>
     <use xlink:href="#me357a7dc1b" x="324.792263" y="159.641014" style="fill: #4169e1; fill-opacity: 0.7; stroke: #4169e1; stroke-opacity: 0.7"/>
     <use xlink:href="#me357a7dc1b" x="406.997081" y="113.655803" style="fill: #4169e1; fill-opacity: 0.7; stroke: #4169e1; stroke-opacity: 0.7"/>
    </g>
   </g>
   <g id="PathCollection_2">
    <defs>
     <path id="mdf13c805ca" d="M 0 -3 
L -3 3 
L 3 3 
z
" style="stroke: #ff6347; stroke-opacity: 0.7"/>
    </defs>
    <g clip-path="url(#pbefa7de598)">
     <use xlink:href="#mdf13c805ca" x="110.428826" y="248.796945" style="fill: #ff6347; fill-opacity: 0.7; stroke: #ff6347; stroke-opacity: 0.7"/>
     <use xlink:href="#mdf13c805ca" x="447.071252" y="109.46518" style="fill: #ff6347; fill-opacity: 0.7; stroke: #ff6347; stroke-opacity: 0.7"/>
     <use xlink:href="#mdf13c805ca" x="283.676012" y="233.885134" style="fill: #ff6347; fill-opacity: 0.7; stroke: #ff6347; stroke-opacity: 0.7"/>
     <use xlink:href="#mdf13c805ca" x="420.061021" y="132.416845" style="fill: #ff6347; fill-opacity: 0.7; stroke: #ff6347; stroke-opacity: 0.7"/>
     <use xlink:href="#mdf13c805ca" x="541.838182" y="81.551585" style="fill: #ff6347; fill-opacity: 0.7; stroke: #ff6347; stroke-opacity: 0.7"/>
     <use xlink:href="#mdf13c805ca" x="331.562461" y="189.696484" style="fill: #ff6347; fill-opacity: 0.7; stroke: #ff6347; stroke-opacity: 0.7"/>
     <use xlink:href="#mdf13c805ca" x="313.680199" y="203.929485" style="fill: #ff6347; fill-opacity: 0.7; stroke: #ff6347; stroke-opacity: 0.7"/>
     <use xlink:href="#mdf13c805ca" x="108.39199" y="230.442105" style="fill: #ff6347; fill-opacity: 0.7; stroke: #ff6347; stroke-opacity: 0.7"/>
     <use xlink:href="#mdf13c805ca" x="202.35375" y="247.339409" style="fill: #ff6347; fill-opacity: 0.7; stroke: #ff6347; stroke-opacity: 0.7"/>
     <use xlink:href="#mdf13c805ca" x="313.087896" y="209.713216" style="fill: #ff6347; fill-opacity: 0.7; stroke: #ff6347; stroke-opacity: 0.7"/>
     <use xlink:href="#mdf13c805ca" x="398.8967" y="129.373301" style="fill: #ff6347; fill-opacity: 0.7; stroke: #ff6347; stroke-opacity: 0.7"/>
     <use xlink:href="#mdf13c805ca" x="458.468047" y="116.419413" style="fill: #ff6347; fill-opacity: 0.7; stroke: #ff6347; stroke-opacity: 0.7"/>
     <use xlink:href="#mdf13c805ca" x="256.180402" y="214.107571" style="fill: #ff6347; fill-opacity: 0.7; stroke: #ff6347; stroke-opacity: 0.7"/>
     <use xlink:href="#mdf13c805ca" x="105.466371" y="258.708535" style="fill: #ff6347; fill-opacity: 0.7; stroke: #ff6347; stroke-opacity: 0.7"/>
     <use xlink:href="#mdf13c805ca" x="211.782381" y="218.550208" style="fill: #ff6347; fill-opacity: 0.7; stroke: #ff6347; stroke-opacity: 0.7"/>
     <use xlink:href="#mdf13c805ca" x="509.114125" y="86.946989" style="fill: #ff6347; fill-opacity: 0.7; stroke: #ff6347; stroke-opacity: 0.7"/>
     <use xlink:href="#mdf13c805ca" x="176.013344" y="221.548511" style="fill: #ff6347; fill-opacity: 0.7; stroke: #ff6347; stroke-opacity: 0.7"/>
     <use xlink:href="#mdf13c805ca" x="290.237824" y="188.609167" style="fill: #ff6347; fill-opacity: 0.7; stroke: #ff6347; stroke-opacity: 0.7"/>
     <use xlink:href="#mdf13c805ca" x="519.454621" y="109.542234" style="fill: #ff6347; fill-opacity: 0.7; stroke: #ff6347; stroke-opacity: 0.7"/>
     <use xlink:href="#mdf13c805ca" x="85.832162" y="299.511317" style="fill: #ff6347; fill-opacity: 0.7; stroke: #ff6347; stroke-opacity: 0.7"/>
     <use xlink:href="#mdf13c805ca" x="361.25174" y="178.765646" style="fill: #ff6347; fill-opacity: 0.7; stroke: #ff6347; stroke-opacity: 0.7"/>
     <use xlink:href="#mdf13c805ca" x="528.50856" y="82.383177" style="fill: #ff6347; fill-opacity: 0.7; stroke: #ff6347; stroke-opacity: 0.7"/>
     <use xlink:href="#mdf13c805ca" x="184.107533" y="274.799895" style="fill: #ff6347; fill-opacity: 0.7; stroke: #ff6347; stroke-opacity: 0.7"/>
     <use xlink:href="#mdf13c805ca" x="336.344114" y="226.644723" style="fill: #ff6347; fill-opacity: 0.7; stroke: #ff6347; stroke-opacity: 0.7"/>
     <use xlink:href="#mdf13c805ca" x="508.891573" y="94.687399" style="fill: #ff6347; fill-opacity: 0.7; stroke: #ff6347; stroke-opacity: 0.7"/>
     <use xlink:href="#mdf13c805ca" x="137.634045" y="303.127813" style="fill: #ff6347; fill-opacity: 0.7; stroke: #ff6347; stroke-opacity: 0.7"/>
     <use xlink:href="#mdf13c805ca" x="324.345862" y="235.430299" style="fill: #ff6347; fill-opacity: 0.7; stroke: #ff6347; stroke-opacity: 0.7"/>
     <use xlink:href="#mdf13c805ca" x="432.952703" y="121.24937" style="fill: #ff6347; fill-opacity: 0.7; stroke: #ff6347; stroke-opacity: 0.7"/>
     <use xlink:href="#mdf13c805ca" x="394.008494" y="169.177617" style="fill: #ff6347; fill-opacity: 0.7; stroke: #ff6347; stroke-opacity: 0.7"/>
     <use xlink:href="#mdf13c805ca" x="297.71547" y="179.287265" style="fill: #ff6347; fill-opacity: 0.7; stroke: #ff6347; stroke-opacity: 0.7"/>
     <use xlink:href="#mdf13c805ca" x="171.929169" y="265.082219" style="fill: #ff6347; fill-opacity: 0.7; stroke: #ff6347; stroke-opacity: 0.7"/>
     <use xlink:href="#mdf13c805ca" x="308.726053" y="219.390686" style="fill: #ff6347; fill-opacity: 0.7; stroke: #ff6347; stroke-opacity: 0.7"/>
     <use xlink:href="#mdf13c805ca" x="252.086571" y="248.520124" style="fill: #ff6347; fill-opacity: 0.7; stroke: #ff6347; stroke-opacity: 0.7"/>
     <use xlink:href="#mdf13c805ca" x="302.331696" y="205.374419" style="fill: #ff6347; fill-opacity: 0.7; stroke: #ff6347; stroke-opacity: 0.7"/>
     <use xlink:href="#mdf13c805ca" x="248.979372" y="222.887833" style="fill: #ff6347; fill-opacity: 0.7; stroke: #ff6347; stroke-opacity: 0.7"/>
     <use xlink:href="#mdf13c805ca" x="474.820968" y="135.584472" style="fill: #ff6347; fill-opacity: 0.7; stroke: #ff6347; stroke-opacity: 0.7"/>
     <use xlink:href="#mdf13c805ca" x="441.678505" y="135.527537" style="fill: #ff6347; fill-opacity: 0.7; stroke: #ff6347; stroke-opacity: 0.7"/>
     <use xlink:href="#mdf13c805ca" x="224.149872" y="269.372845" style="fill: #ff6347; fill-opacity: 0.7; stroke: #ff6347; stroke-opacity: 0.7"/>
     <use xlink:href="#mdf13c805ca" x="347.891702" y="169.910323" style="fill: #ff6347; fill-opacity: 0.7; stroke: #ff6347; stroke-opacity: 0.7"/>
     <use xlink:href="#mdf13c805ca" x="205.994787" y="284.80337" style="fill: #ff6347; fill-opacity: 0.7; stroke: #ff6347; stroke-opacity: 0.7"/>
     <use xlink:href="#mdf13c805ca" x="290.581816" y="201.763884" style="fill: #ff6347; fill-opacity: 0.7; stroke: #ff6347; stroke-opacity: 0.7"/>
     <use xlink:href="#mdf13c805ca" x="242.801617" y="198.635898" style="fill: #ff6347; fill-opacity: 0.7; stroke: #ff6347; stroke-opacity: 0.7"/>
     <use xlink:href="#mdf13c805ca" x="388.451882" y="121.440971" style="fill: #ff6347; fill-opacity: 0.7; stroke: #ff6347; stroke-opacity: 0.7"/>
     <use xlink:href="#mdf13c805ca" x="251.113592" y="166.505091" style="fill: #ff6347; fill-opacity: 0.7; stroke: #ff6347; stroke-opacity: 0.7"/>
     <use xlink:href="#mdf13c805ca" x="293.57215" y="238.385326" style="fill: #ff6347; fill-opacity: 0.7; stroke: #ff6347; stroke-opacity: 0.7"/>
     <use xlink:href="#mdf13c805ca" x="418.079733" y="117.265036" style="fill: #ff6347; fill-opacity: 0.7; stroke: #ff6347; stroke-opacity: 0.7"/>
     <use xlink:href="#mdf13c805ca" x="271.515056" y="171.397505" style="fill: #ff6347; fill-opacity: 0.7; stroke: #ff6347; stroke-opacity: 0.7"/>
     <use xlink:href="#mdf13c805ca" x="507.597315" y="70.398134" style="fill: #ff6347; fill-opacity: 0.7; stroke: #ff6347; stroke-opacity: 0.7"/>
     <use xlink:href="#mdf13c805ca" x="160.256199" y="281.49535" style="fill: #ff6347; fill-opacity: 0.7; stroke: #ff6347; stroke-opacity: 0.7"/>
     <use xlink:href="#mdf13c805ca" x="428.507431" y="122.197289" style="fill: #ff6347; fill-opacity: 0.7; stroke: #ff6347; stroke-opacity: 0.7"/>
     <use xlink:href="#mdf13c805ca" x="276.003977" y="151.132211" style="fill: #ff6347; fill-opacity: 0.7; stroke: #ff6347; stroke-opacity: 0.7"/>
     <use xlink:href="#mdf13c805ca" x="277.955827" y="243.837319" style="fill: #ff6347; fill-opacity: 0.7; stroke: #ff6347; stroke-opacity: 0.7"/>
     <use xlink:href="#mdf13c805ca" x="377.438158" y="143.607452" style="fill: #ff6347; fill-opacity: 0.7; stroke: #ff6347; stroke-opacity: 0.7"/>
     <use xlink:href="#mdf13c805ca" x="324.103584" y="150.11789" style="fill: #ff6347; fill-opacity: 0.7; stroke: #ff6347; stroke-opacity: 0.7"/>
     <use xlink:href="#mdf13c805ca" x="272.421312" y="224.031976" style="fill: #ff6347; fill-opacity: 0.7; stroke: #ff6347; stroke-opacity: 0.7"/>
     <use xlink:href="#mdf13c805ca" x="74.601818" y="278.264378" style="fill: #ff6347; fill-opacity: 0.7; stroke: #ff6347; stroke-opacity: 0.7"/>
     <use xlink:href="#mdf13c805ca" x="118.062044" y="304.617763" style="fill: #ff6347; fill-opacity: 0.7; stroke: #ff6347; stroke-opacity: 0.7"/>
     <use xlink:href="#mdf13c805ca" x="413.328855" y="163.217031" style="fill: #ff6347; fill-opacity: 0.7; stroke: #ff6347; stroke-opacity: 0.7"/>
     <use xlink:href="#mdf13c805ca" x="324.792263" y="203.589913" style="fill: #ff6347; fill-opacity: 0.7; stroke: #ff6347; stroke-opacity: 0.7"/>
     <use xlink:href="#mdf13c805ca" x="406.997081" y="138.091753" style="fill: #ff6347; fill-opacity: 0.7; stroke: #ff6347; stroke-opacity: 0.7"/>
    </g>
   </g>
   <g id="matplotlib.axis_1">
    <g id="xtick_1">
     <g id="line2d_1">
      <path d="M 127.080235 317.877656 
L 127.080235 26.16 
" clip-path="url(#pbefa7de598)" style="fill: none; stroke-dasharray: 2.96,1.28; stroke-dashoffset: 0; stroke: #b0b0b0; stroke-opacity: 0.5; stroke-width: 0.8"/>
     </g>
     <g id="line2d_2">
      <defs>
       <path id="m3bd9a5784b" d="M 0 0 
L 0 3.5 
" style="stroke: #000000; stroke-width: 0.8"/>
      </defs>
      <g>
       <use xlink:href="#m3bd9a5784b" x="127.080235" y="317.877656" style="stroke: #000000; stroke-width: 0.8"/>
      </g>
     </g>
     <g id="text_1">
      <!-- 2 -->
      <g transform="translate(123.898985 332.475312) scale(0.1 -0.1)">
       <defs>
        <path id="DejaVuSans-15" d="M 1228 531 
L 3431 531 
L 3431 0 
L 469 0 
L 469 531 
Q 828 903 1448 1529 
Q 2069 2156 2228 2338 
Q 2531 2678 2651 2914 
Q 2772 3150 2772 3378 
Q 2772 3750 2511 3984 
Q 2250 4219 1831 4219 
Q 1534 4219 1204 4116 
Q 875 4013 500 3803 
L 500 4441 
Q 881 4594 1212 4672 
Q 1544 4750 1819 4750 
Q 2544 4750 2975 4387 
Q 3406 4025 3406 3419 
Q 3406 3131 3298 2873 
Q 3191 2616 2906 2266 
Q 2828 2175 2409 1742 
Q 1991 1309 1228 531 
z
" transform="scale(0.015625)"/>
       </defs>
       <use xlink:href="#DejaVuSans-15"/>
      </g>
     </g>
    </g>
    <g id="xtick_2">
     <g id="line2d_3">
      <path d="M 233.402451 317.877656 
L 233.402451 26.16 
" clip-path="url(#pbefa7de598)" style="fill: none; stroke-dasharray: 2.96,1.28; stroke-dashoffset: 0; stroke: #b0b0b0; stroke-opacity: 0.5; stroke-width: 0.8"/>
     </g>
     <g id="line2d_4">
      <g>
       <use xlink:href="#m3bd9a5784b" x="233.402451" y="317.877656" style="stroke: #000000; stroke-width: 0.8"/>
      </g>
     </g>
     <g id="text_2">
      <!-- 4 -->
      <g transform="translate(230.221201 332.475312) scale(0.1 -0.1)">
       <defs>
        <path id="DejaVuSans-17" d="M 2419 4116 
L 825 1625 
L 2419 1625 
L 2419 4116 
z
M 2253 4666 
L 3047 4666 
L 3047 1625 
L 3713 1625 
L 3713 1100 
L 3047 1100 
L 3047 0 
L 2419 0 
L 2419 1100 
L 313 1100 
L 313 1709 
L 2253 4666 
z
" transform="scale(0.015625)"/>
       </defs>
       <use xlink:href="#DejaVuSans-17"/>
      </g>
     </g>
    </g>
    <g id="xtick_3">
     <g id="line2d_5">
      <path d="M 339.724667 317.877656 
L 339.724667 26.16 
" clip-path="url(#pbefa7de598)" style="fill: none; stroke-dasharray: 2.96,1.28; stroke-dashoffset: 0; stroke: #b0b0b0; stroke-opacity: 0.5; stroke-width: 0.8"/>
     </g>
     <g id="line2d_6">
      <g>
       <use xlink:href="#m3bd9a5784b" x="339.724667" y="317.877656" style="stroke: #000000; stroke-width: 0.8"/>
      </g>
     </g>
     <g id="text_3">
      <!-- 6 -->
      <g transform="translate(336.543417 332.475312) scale(0.1 -0.1)">
       <defs>
        <path id="DejaVuSans-19" d="M 2113 2584 
Q 1688 2584 1439 2293 
Q 1191 2003 1191 1497 
Q 1191 994 1439 701 
Q 1688 409 2113 409 
Q 2538 409 2786 701 
Q 3034 994 3034 1497 
Q 3034 2003 2786 2293 
Q 2538 2584 2113 2584 
z
M 3366 4563 
L 3366 3988 
Q 3128 4100 2886 4159 
Q 2644 4219 2406 4219 
Q 1781 4219 1451 3797 
Q 1122 3375 1075 2522 
Q 1259 2794 1537 2939 
Q 1816 3084 2150 3084 
Q 2853 3084 3261 2657 
Q 3669 2231 3669 1497 
Q 3669 778 3244 343 
Q 2819 -91 2113 -91 
Q 1303 -91 875 529 
Q 447 1150 447 2328 
Q 447 3434 972 4092 
Q 1497 4750 2381 4750 
Q 2619 4750 2861 4703 
Q 3103 4656 3366 4563 
z
" transform="scale(0.015625)"/>
       </defs>
       <use xlink:href="#DejaVuSans-19"/>
      </g>
     </g>
    </g>
    <g id="xtick_4">
     <g id="line2d_7">
      <path d="M 446.046883 317.877656 
L 446.046883 26.16 
" clip-path="url(#pbefa7de598)" style="fill: none; stroke-dasharray: 2.96,1.28; stroke-dashoffset: 0; stroke: #b0b0b0; stroke-opacity: 0.5; stroke-width: 0.8"/>
     </g>
     <g id="line2d_8">
      <g>
       <use xlink:href="#m3bd9a5784b" x="446.046883" y="317.877656" style="stroke: #000000; stroke-width: 0.8"/>
      </g>
     </g>
     <g id="text_4">
      <!-- 8 -->
      <g transform="translate(442.865633 332.475312) scale(0.1 -0.1)">
       <defs>
        <path id="DejaVuSans-1b" d="M 2034 2216 
Q 1584 2216 1326 1975 
Q 1069 1734 1069 1313 
Q 1069 891 1326 650 
Q 1584 409 2034 409 
Q 2484 409 2743 651 
Q 3003 894 3003 1313 
Q 3003 1734 2745 1975 
Q 2488 2216 2034 2216 
z
M 1403 2484 
Q 997 2584 770 2862 
Q 544 3141 544 3541 
Q 544 4100 942 4425 
Q 1341 4750 2034 4750 
Q 2731 4750 3128 4425 
Q 3525 4100 3525 3541 
Q 3525 3141 3298 2862 
Q 3072 2584 2669 2484 
Q 3125 2378 3379 2068 
Q 3634 1759 3634 1313 
Q 3634 634 3220 271 
Q 2806 -91 2034 -91 
Q 1263 -91 848 271 
Q 434 634 434 1313 
Q 434 1759 690 2068 
Q 947 2378 1403 2484 
z
M 1172 3481 
Q 1172 3119 1398 2916 
Q 1625 2713 2034 2713 
Q 2441 2713 2670 2916 
Q 2900 3119 2900 3481 
Q 2900 3844 2670 4047 
Q 2441 4250 2034 4250 
Q 1625 4250 1398 4047 
Q 1172 3844 1172 3481 
z
" transform="scale(0.015625)"/>
       </defs>
       <use xlink:href="#DejaVuSans-1b"/>
      </g>
     </g>
    </g>
    <g id="xtick_5">
     <g id="line2d_9">
      <path d="M 552.369099 317.877656 
L 552.369099 26.16 
" clip-path="url(#pbefa7de598)" style="fill: none; stroke-dasharray: 2.96,1.28; stroke-dashoffset: 0; stroke: #b0b0b0; stroke-opacity: 0.5; stroke-width: 0.8"/>
     </g>
     <g id="line2d_10">
      <g>
       <use xlink:href="#m3bd9a5784b" x="552.369099" y="317.877656" style="stroke: #000000; stroke-width: 0.8"/>
      </g>
     </g>
     <g id="text_5">
      <!-- 10 -->
      <g transform="translate(546.006599 332.475312) scale(0.1 -0.1)">
       <defs>
        <path id="DejaVuSans-14" d="M 794 531 
L 1825 531 
L 1825 4091 
L 703 3866 
L 703 4441 
L 1819 4666 
L 2450 4666 
L 2450 531 
L 3481 531 
L 3481 0 
L 794 0 
L 794 531 
z
" transform="scale(0.015625)"/>
        <path id="DejaVuSans-13" d="M 2034 4250 
Q 1547 4250 1301 3770 
Q 1056 3291 1056 2328 
Q 1056 1369 1301 889 
Q 1547 409 2034 409 
Q 2525 409 2770 889 
Q 3016 1369 3016 2328 
Q 3016 3291 2770 3770 
Q 2525 4250 2034 4250 
z
M 2034 4750 
Q 2819 4750 3233 4129 
Q 3647 3509 3647 2328 
Q 3647 1150 3233 529 
Q 2819 -91 2034 -91 
Q 1250 -91 836 529 
Q 422 1150 422 2328 
Q 422 3509 836 4129 
Q 1250 4750 2034 4750 
z
" transform="scale(0.015625)"/>
       </defs>
       <use xlink:href="#DejaVuSans-14"/>
       <use xlink:href="#DejaVuSans-13" transform="translate(63.625 0)"/>
      </g>
     </g>
    </g>
    <g id="text_6">
     <!-- Study Hours -->
     <g transform="translate(277.545781 346.476094) scale(0.1 -0.1)">
      <defs>
       <path id="DejaVuSans-36" d="M 3425 4513 
L 3425 3897 
Q 3066 4069 2747 4153 
Q 2428 4238 2131 4238 
Q 1616 4238 1336 4038 
Q 1056 3838 1056 3469 
Q 1056 3159 1242 3001 
Q 1428 2844 1947 2747 
L 2328 2669 
Q 3034 2534 3370 2195 
Q 3706 1856 3706 1288 
Q 3706 609 3251 259 
Q 2797 -91 1919 -91 
Q 1588 -91 1214 -16 
Q 841 59 441 206 
L 441 856 
Q 825 641 1194 531 
Q 1563 422 1919 422 
Q 2459 422 2753 634 
Q 3047 847 3047 1241 
Q 3047 1584 2836 1778 
Q 2625 1972 2144 2069 
L 1759 2144 
Q 1053 2284 737 2584 
Q 422 2884 422 3419 
Q 422 4038 858 4394 
Q 1294 4750 2059 4750 
Q 2388 4750 2728 4690 
Q 3069 4631 3425 4513 
z
" transform="scale(0.015625)"/>
       <path id="DejaVuSans-57" d="M 1172 4494 
L 1172 3500 
L 2356 3500 
L 2356 3053 
L 1172 3053 
L 1172 1153 
Q 1172 725 1289 603 
Q 1406 481 1766 481 
L 2356 481 
L 2356 0 
L 1766 0 
Q 1100 0 847 248 
Q 594 497 594 1153 
L 594 3053 
L 172 3053 
L 172 3500 
L 594 3500 
L 594 4494 
L 1172 4494 
z
" transform="scale(0.015625)"/>
       <path id="DejaVuSans-58" d="M 544 1381 
L 544 3500 
L 1119 3500 
L 1119 1403 
Q 1119 906 1312 657 
Q 1506 409 1894 409 
Q 2359 409 2629 706 
Q 2900 1003 2900 1516 
L 2900 3500 
L 3475 3500 
L 3475 0 
L 2900 0 
L 2900 538 
Q 2691 219 2414 64 
Q 2138 -91 1772 -91 
Q 1169 -91 856 284 
Q 544 659 544 1381 
z
M 1991 3584 
L 1991 3584 
z
" transform="scale(0.015625)"/>
       <path id="DejaVuSans-47" d="M 2906 2969 
L 2906 4863 
L 3481 4863 
L 3481 0 
L 2906 0 
L 2906 525 
Q 2725 213 2448 61 
Q 2172 -91 1784 -91 
Q 1150 -91 751 415 
Q 353 922 353 1747 
Q 353 2572 751 3078 
Q 1150 3584 1784 3584 
Q 2172 3584 2448 3432 
Q 2725 3281 2906 2969 
z
M 947 1747 
Q 947 1113 1208 752 
Q 1469 391 1925 391 
Q 2381 391 2643 752 
Q 2906 1113 2906 1747 
Q 2906 2381 2643 2742 
Q 2381 3103 1925 3103 
Q 1469 3103 1208 2742 
Q 947 2381 947 1747 
z
" transform="scale(0.015625)"/>
       <path id="DejaVuSans-5c" d="M 2059 -325 
Q 1816 -950 1584 -1140 
Q 1353 -1331 966 -1331 
L 506 -1331 
L 506 -850 
L 844 -850 
Q 1081 -850 1212 -737 
Q 1344 -625 1503 -206 
L 1606 56 
L 191 3500 
L 800 3500 
L 1894 763 
L 2988 3500 
L 3597 3500 
L 2059 -325 
z
" transform="scale(0.015625)"/>
       <path id="DejaVuSans-3" transform="scale(0.015625)"/>
       <path id="DejaVuSans-2b" d="M 628 4666 
L 1259 4666 
L 1259 2753 
L 3553 2753 
L 3553 4666 
L 4184 4666 
L 4184 0 
L 3553 0 
L 3553 2222 
L 1259 2222 
L 1259 0 
L 628 0 
L 628 4666 
z
" transform="scale(0.015625)"/>
       <path id="DejaVuSans-52" d="M 1959 3097 
Q 1497 3097 1228 2736 
Q 959 2375 959 1747 
Q 959 1119 1226 758 
Q 1494 397 1959 397 
Q 2419 397 2687 759 
Q 2956 1122 2956 1747 
Q 2956 2369 2687 2733 
Q 2419 3097 1959 3097 
z
M 1959 3584 
Q 2709 3584 3137 3096 
Q 3566 2609 3566 1747 
Q 3566 888 3137 398 
Q 2709 -91 1959 -91 
Q 1206 -91 779 398 
Q 353 888 353 1747 
Q 353 2609 779 3096 
Q 1206 3584 1959 3584 
z
" transform="scale(0.015625)"/>
       <path id="DejaVuSans-55" d="M 2631 2963 
Q 2534 3019 2420 3045 
Q 2306 3072 2169 3072 
Q 1681 3072 1420 2755 
Q 1159 2438 1159 1844 
L 1159 0 
L 581 0 
L 581 3500 
L 1159 3500 
L 1159 2956 
Q 1341 3275 1631 3429 
Q 1922 3584 2338 3584 
Q 2397 3584 2469 3576 
Q 2541 3569 2628 3553 
L 2631 2963 
z
" transform="scale(0.015625)"/>
       <path id="DejaVuSans-56" d="M 2834 3397 
L 2834 2853 
Q 2591 2978 2328 3040 
Q 2066 3103 1784 3103 
Q 1356 3103 1142 2972 
Q 928 2841 928 2578 
Q 928 2378 1081 2264 
Q 1234 2150 1697 2047 
L 1894 2003 
Q 2506 1872 2764 1633 
Q 3022 1394 3022 966 
Q 3022 478 2636 193 
Q 2250 -91 1575 -91 
Q 1294 -91 989 -36 
Q 684 19 347 128 
L 347 722 
Q 666 556 975 473 
Q 1284 391 1588 391 
Q 1994 391 2212 530 
Q 2431 669 2431 922 
Q 2431 1156 2273 1281 
Q 2116 1406 1581 1522 
L 1381 1569 
Q 847 1681 609 1914 
Q 372 2147 372 2553 
Q 372 3047 722 3315 
Q 1072 3584 1716 3584 
Q 2034 3584 2315 3537 
Q 2597 3491 2834 3397 
z
" transform="scale(0.015625)"/>
      </defs>
      <use xlink:href="#DejaVuSans-36"/>
      <use xlink:href="#DejaVuSans-57" transform="translate(63.484375 0)"/>
      <use xlink:href="#DejaVuSans-58" transform="translate(102.6875 0)"/>
      <use xlink:href="#DejaVuSans-47" transform="translate(166.0625 0)"/>
      <use xlink:href="#DejaVuSans-5c" transform="translate(229.546875 0)"/>
      <use xlink:href="#DejaVuSans-3" transform="translate(288.734375 0)"/>
      <use xlink:href="#DejaVuSans-2b" transform="translate(320.515625 0)"/>
      <use xlink:href="#DejaVuSans-52" transform="translate(395.71875 0)"/>
      <use xlink:href="#DejaVuSans-58" transform="translate(456.90625 0)"/>
      <use xlink:href="#DejaVuSans-55" transform="translate(520.28125 0)"/>
      <use xlink:href="#DejaVuSans-56" transform="translate(561.390625 0)"/>
     </g>
    </g>
   </g>
   <g id="matplotlib.axis_2">
    <g id="ytick_1">
     <g id="line2d_11">
      <path d="M 51.24 272.524509 
L 565.2 272.524509 
" clip-path="url(#pbefa7de598)" style="fill: none; stroke-dasharray: 2.96,1.28; stroke-dashoffset: 0; stroke: #b0b0b0; stroke-opacity: 0.5; stroke-width: 0.8"/>
     </g>
     <g id="line2d_12">
      <defs>
       <path id="m06daa681fd" d="M 0 0 
L -3.5 0 
" style="stroke: #000000; stroke-width: 0.8"/>
      </defs>
      <g>
       <use xlink:href="#m06daa681fd" x="51.24" y="272.524509" style="stroke: #000000; stroke-width: 0.8"/>
      </g>
     </g>
     <g id="text_7">
      <!-- 50 -->
      <g transform="translate(31.515 276.323337) scale(0.1 -0.1)">
       <defs>
        <path id="DejaVuSans-18" d="M 691 4666 
L 3169 4666 
L 3169 4134 
L 1269 4134 
L 1269 2991 
Q 1406 3038 1543 3061 
Q 1681 3084 1819 3084 
Q 2600 3084 3056 2656 
Q 3513 2228 3513 1497 
Q 3513 744 3044 326 
Q 2575 -91 1722 -91 
Q 1428 -91 1123 -41 
Q 819 9 494 109 
L 494 744 
Q 775 591 1075 516 
Q 1375 441 1709 441 
Q 2250 441 2565 725 
Q 2881 1009 2881 1497 
Q 2881 1984 2565 2268 
Q 2250 2553 1709 2553 
Q 1456 2553 1204 2497 
Q 953 2441 691 2322 
L 691 4666 
z
" transform="scale(0.015625)"/>
       </defs>
       <use xlink:href="#DejaVuSans-18"/>
       <use xlink:href="#DejaVuSans-13" transform="translate(63.625 0)"/>
      </g>
     </g>
    </g>
    <g id="ytick_2">
     <g id="line2d_13">
      <path d="M 51.24 226.062896 
L 565.2 226.062896 
" clip-path="url(#pbefa7de598)" style="fill: none; stroke-dasharray: 2.96,1.28; stroke-dashoffset: 0; stroke: #b0b0b0; stroke-opacity: 0.5; stroke-width: 0.8"/>
     </g>
     <g id="line2d_14">
      <g>
       <use xlink:href="#m06daa681fd" x="51.24" y="226.062896" style="stroke: #000000; stroke-width: 0.8"/>
      </g>
     </g>
     <g id="text_8">
      <!-- 60 -->
      <g transform="translate(31.515 229.861724) scale(0.1 -0.1)">
       <use xlink:href="#DejaVuSans-19"/>
       <use xlink:href="#DejaVuSans-13" transform="translate(63.625 0)"/>
      </g>
     </g>
    </g>
    <g id="ytick_3">
     <g id="line2d_15">
      <path d="M 51.24 179.601282 
L 565.2 179.601282 
" clip-path="url(#pbefa7de598)" style="fill: none; stroke-dasharray: 2.96,1.28; stroke-dashoffset: 0; stroke: #b0b0b0; stroke-opacity: 0.5; stroke-width: 0.8"/>
     </g>
     <g id="line2d_16">
      <g>
       <use xlink:href="#m06daa681fd" x="51.24" y="179.601282" style="stroke: #000000; stroke-width: 0.8"/>
      </g>
     </g>
     <g id="text_9">
      <!-- 70 -->
      <g transform="translate(31.515 183.40011) scale(0.1 -0.1)">
       <defs>
        <path id="DejaVuSans-1a" d="M 525 4666 
L 3525 4666 
L 3525 4397 
L 1831 0 
L 1172 0 
L 2766 4134 
L 525 4134 
L 525 4666 
z
" transform="scale(0.015625)"/>
       </defs>
       <use xlink:href="#DejaVuSans-1a"/>
       <use xlink:href="#DejaVuSans-13" transform="translate(63.625 0)"/>
      </g>
     </g>
    </g>
    <g id="ytick_4">
     <g id="line2d_17">
      <path d="M 51.24 133.139669 
L 565.2 133.139669 
" clip-path="url(#pbefa7de598)" style="fill: none; stroke-dasharray: 2.96,1.28; stroke-dashoffset: 0; stroke: #b0b0b0; stroke-opacity: 0.5; stroke-width: 0.8"/>
     </g>
     <g id="line2d_18">
      <g>
       <use xlink:href="#m06daa681fd" x="51.24" y="133.139669" style="stroke: #000000; stroke-width: 0.8"/>
      </g>
     </g>
     <g id="text_10">
      <!-- 80 -->
      <g transform="translate(31.515 136.938497) scale(0.1 -0.1)">
       <use xlink:href="#DejaVuSans-1b"/>
       <use xlink:href="#DejaVuSans-13" transform="translate(63.625 0)"/>
      </g>
     </g>
    </g>
    <g id="ytick_5">
     <g id="line2d_19">
      <path d="M 51.24 86.678056 
L 565.2 86.678056 
" clip-path="url(#pbefa7de598)" style="fill: none; stroke-dasharray: 2.96,1.28; stroke-dashoffset: 0; stroke: #b0b0b0; stroke-opacity: 0.5; stroke-width: 0.8"/>
     </g>
     <g id="line2d_20">
      <g>
       <use xlink:href="#m06daa681fd" x="51.24" y="86.678056" style="stroke: #000000; stroke-width: 0.8"/>
      </g>
     </g>
     <g id="text_11">
      <!-- 90 -->
      <g transform="translate(31.515 90.476884) scale(0.1 -0.1)">
       <defs>
        <path id="DejaVuSans-1c" d="M 703 97 
L 703 672 
Q 941 559 1184 500 
Q 1428 441 1663 441 
Q 2288 441 2617 861 
Q 2947 1281 2994 2138 
Q 2813 1869 2534 1725 
Q 2256 1581 1919 1581 
Q 1219 1581 811 2004 
Q 403 2428 403 3163 
Q 403 3881 828 4315 
Q 1253 4750 1959 4750 
Q 2769 4750 3195 4129 
Q 3622 3509 3622 2328 
Q 3622 1225 3098 567 
Q 2575 -91 1691 -91 
Q 1453 -91 1209 -44 
Q 966 3 703 97 
z
M 1959 2075 
Q 2384 2075 2632 2365 
Q 2881 2656 2881 3163 
Q 2881 3666 2632 3958 
Q 2384 4250 1959 4250 
Q 1534 4250 1286 3958 
Q 1038 3666 1038 3163 
Q 1038 2656 1286 2365 
Q 1534 2075 1959 2075 
z
" transform="scale(0.015625)"/>
       </defs>
       <use xlink:href="#DejaVuSans-1c"/>
       <use xlink:href="#DejaVuSans-13" transform="translate(63.625 0)"/>
      </g>
     </g>
    </g>
    <g id="ytick_6">
     <g id="line2d_21">
      <path d="M 51.24 40.216442 
L 565.2 40.216442 
" clip-path="url(#pbefa7de598)" style="fill: none; stroke-dasharray: 2.96,1.28; stroke-dashoffset: 0; stroke: #b0b0b0; stroke-opacity: 0.5; stroke-width: 0.8"/>
     </g>
     <g id="line2d_22">
      <g>
       <use xlink:href="#m06daa681fd" x="51.24" y="40.216442" style="stroke: #000000; stroke-width: 0.8"/>
      </g>
     </g>
     <g id="text_12">
      <!-- 100 -->
      <g transform="translate(25.1525 44.015271) scale(0.1 -0.1)">
       <use xlink:href="#DejaVuSans-14"/>
       <use xlink:href="#DejaVuSans-13" transform="translate(63.625 0)"/>
       <use xlink:href="#DejaVuSans-13" transform="translate(127.25 0)"/>
      </g>
     </g>
    </g>
    <g id="text_13">
     <!-- Score -->
     <g transform="translate(18.750156 186.023516) rotate(-90) scale(0.1 -0.1)">
      <defs>
       <path id="DejaVuSans-46" d="M 3122 3366 
L 3122 2828 
Q 2878 2963 2633 3030 
Q 2388 3097 2138 3097 
Q 1578 3097 1268 2742 
Q 959 2388 959 1747 
Q 959 1106 1268 751 
Q 1578 397 2138 397 
Q 2388 397 2633 464 
Q 2878 531 3122 666 
L 3122 134 
Q 2881 22 2623 -34 
Q 2366 -91 2075 -91 
Q 1284 -91 818 406 
Q 353 903 353 1747 
Q 353 2603 823 3093 
Q 1294 3584 2113 3584 
Q 2378 3584 2631 3529 
Q 2884 3475 3122 3366 
z
" transform="scale(0.015625)"/>
       <path id="DejaVuSans-48" d="M 3597 1894 
L 3597 1613 
L 953 1613 
Q 991 1019 1311 708 
Q 1631 397 2203 397 
Q 2534 397 2845 478 
Q 3156 559 3463 722 
L 3463 178 
Q 3153 47 2828 -22 
Q 2503 -91 2169 -91 
Q 1331 -91 842 396 
Q 353 884 353 1716 
Q 353 2575 817 3079 
Q 1281 3584 2069 3584 
Q 2775 3584 3186 3129 
Q 3597 2675 3597 1894 
z
M 3022 2063 
Q 3016 2534 2758 2815 
Q 2500 3097 2075 3097 
Q 1594 3097 1305 2825 
Q 1016 2553 972 2059 
L 3022 2063 
z
" transform="scale(0.015625)"/>
      </defs>
      <use xlink:href="#DejaVuSans-36"/>
      <use xlink:href="#DejaVuSans-46" transform="translate(63.484375 0)"/>
      <use xlink:href="#DejaVuSans-52" transform="translate(118.46875 0)"/>
      <use xlink:href="#DejaVuSans-55" transform="translate(179.65625 0)"/>
      <use xlink:href="#DejaVuSans-48" transform="translate(218.5625 0)"/>
     </g>
    </g>
   </g>
   <g id="patch_3">
    <path d="M 51.24 317.877656 
L 51.24 26.16 
" style="fill: none; stroke: #000000; stroke-width: 0.8; stroke-linejoin: miter; stroke-linecap: square"/>
   </g>
   <g id="patch_4">
    <path d="M 565.2 317.877656 
L 565.2 26.16 
" style="fill: none; stroke: #000000; stroke-width: 0.8; stroke-linejoin: miter; stroke-linecap: square"/>
   </g>
   <g id="patch_5">
    <path d="M 51.24 317.877656 
L 565.2 317.877656 
" style="fill: none; stroke: #000000; stroke-width: 0.8; stroke-linejoin: miter; stroke-linecap: square"/>
   </g>
   <g id="patch_6">
    <path d="M 51.24 26.16 
L 565.2 26.16 
" style="fill: none; stroke: #000000; stroke-width: 0.8; stroke-linejoin: miter; stroke-linecap: square"/>
   </g>
   <g id="text_14">
    <!-- Study Hours vs Exam &amp; Assignment Scores -->
    <g transform="translate(178.400625 20.16) scale(0.12 -0.12)">
     <defs>
      <path id="DejaVuSans-59" d="M 191 3500 
L 800 3500 
L 1894 563 
L 2988 3500 
L 3597 3500 
L 2284 0 
L 1503 0 
L 191 3500 
z
" transform="scale(0.015625)"/>
      <path id="DejaVuSans-28" d="M 628 4666 
L 3578 4666 
L 3578 4134 
L 1259 4134 
L 1259 2753 
L 3481 2753 
L 3481 2222 
L 1259 2222 
L 1259 531 
L 3634 531 
L 3634 0 
L 628 0 
L 628 4666 
z
" transform="scale(0.015625)"/>
      <path id="DejaVuSans-5b" d="M 3513 3500 
L 2247 1797 
L 3578 0 
L 2900 0 
L 1881 1375 
L 863 0 
L 184 0 
L 1544 1831 
L 300 3500 
L 978 3500 
L 1906 2253 
L 2834 3500 
L 3513 3500 
z
" transform="scale(0.015625)"/>
      <path id="DejaVuSans-44" d="M 2194 1759 
Q 1497 1759 1228 1600 
Q 959 1441 959 1056 
Q 959 750 1161 570 
Q 1363 391 1709 391 
Q 2188 391 2477 730 
Q 2766 1069 2766 1631 
L 2766 1759 
L 2194 1759 
z
M 3341 1997 
L 3341 0 
L 2766 0 
L 2766 531 
Q 2569 213 2275 61 
Q 1981 -91 1556 -91 
Q 1019 -91 701 211 
Q 384 513 384 1019 
Q 384 1609 779 1909 
Q 1175 2209 1959 2209 
L 2766 2209 
L 2766 2266 
Q 2766 2663 2505 2880 
Q 2244 3097 1772 3097 
Q 1472 3097 1187 3025 
Q 903 2953 641 2809 
L 641 3341 
Q 956 3463 1253 3523 
Q 1550 3584 1831 3584 
Q 2591 3584 2966 3190 
Q 3341 2797 3341 1997 
z
" transform="scale(0.015625)"/>
      <path id="DejaVuSans-50" d="M 3328 2828 
Q 3544 3216 3844 3400 
Q 4144 3584 4550 3584 
Q 5097 3584 5394 3201 
Q 5691 2819 5691 2113 
L 5691 0 
L 5113 0 
L 5113 2094 
Q 5113 2597 4934 2840 
Q 4756 3084 4391 3084 
Q 3944 3084 3684 2787 
Q 3425 2491 3425 1978 
L 3425 0 
L 2847 0 
L 2847 2094 
Q 2847 2600 2669 2842 
Q 2491 3084 2119 3084 
Q 1678 3084 1418 2786 
Q 1159 2488 1159 1978 
L 1159 0 
L 581 0 
L 581 3500 
L 1159 3500 
L 1159 2956 
Q 1356 3278 1631 3431 
Q 1906 3584 2284 3584 
Q 2666 3584 2933 3390 
Q 3200 3197 3328 2828 
z
" transform="scale(0.015625)"/>
      <path id="DejaVuSans-9" d="M 1556 2509 
Q 1272 2256 1139 2004 
Q 1006 1753 1006 1478 
Q 1006 1022 1337 719 
Q 1669 416 2169 416 
Q 2466 416 2725 514 
Q 2984 613 3213 813 
L 1556 2509 
z
M 1997 2859 
L 3584 1234 
Q 3769 1513 3872 1830 
Q 3975 2147 3994 2503 
L 4575 2503 
Q 4538 2091 4375 1687 
Q 4213 1284 3922 891 
L 4794 0 
L 4006 0 
L 3559 459 
Q 3234 181 2878 45 
Q 2522 -91 2113 -91 
Q 1359 -91 881 339 
Q 403 769 403 1441 
Q 403 1841 612 2192 
Q 822 2544 1241 2853 
Q 1091 3050 1012 3245 
Q 934 3441 934 3628 
Q 934 4134 1281 4442 
Q 1628 4750 2203 4750 
Q 2463 4750 2720 4694 
Q 2978 4638 3244 4525 
L 3244 3956 
Q 2972 4103 2725 4179 
Q 2478 4256 2266 4256 
Q 1938 4256 1733 4082 
Q 1528 3909 1528 3634 
Q 1528 3475 1620 3314 
Q 1713 3153 1997 2859 
z
" transform="scale(0.015625)"/>
      <path id="DejaVuSans-24" d="M 2188 4044 
L 1331 1722 
L 3047 1722 
L 2188 4044 
z
M 1831 4666 
L 2547 4666 
L 4325 0 
L 3669 0 
L 3244 1197 
L 1141 1197 
L 716 0 
L 50 0 
L 1831 4666 
z
" transform="scale(0.015625)"/>
      <path id="DejaVuSans-4c" d="M 603 3500 
L 1178 3500 
L 1178 0 
L 603 0 
L 603 3500 
z
M 603 4863 
L 1178 4863 
L 1178 4134 
L 603 4134 
L 603 4863 
z
" transform="scale(0.015625)"/>
      <path id="DejaVuSans-4a" d="M 2906 1791 
Q 2906 2416 2648 2759 
Q 2391 3103 1925 3103 
Q 1463 3103 1205 2759 
Q 947 2416 947 1791 
Q 947 1169 1205 825 
Q 1463 481 1925 481 
Q 2391 481 2648 825 
Q 2906 1169 2906 1791 
z
M 3481 434 
Q 3481 -459 3084 -895 
Q 2688 -1331 1869 -1331 
Q 1566 -1331 1297 -1286 
Q 1028 -1241 775 -1147 
L 775 -588 
Q 1028 -725 1275 -790 
Q 1522 -856 1778 -856 
Q 2344 -856 2625 -561 
Q 2906 -266 2906 331 
L 2906 616 
Q 2728 306 2450 153 
Q 2172 0 1784 0 
Q 1141 0 747 490 
Q 353 981 353 1791 
Q 353 2603 747 3093 
Q 1141 3584 1784 3584 
Q 2172 3584 2450 3431 
Q 2728 3278 2906 2969 
L 2906 3500 
L 3481 3500 
L 3481 434 
z
" transform="scale(0.015625)"/>
      <path id="DejaVuSans-51" d="M 3513 2113 
L 3513 0 
L 2938 0 
L 2938 2094 
Q 2938 2591 2744 2837 
Q 2550 3084 2163 3084 
Q 1697 3084 1428 2787 
Q 1159 2491 1159 1978 
L 1159 0 
L 581 0 
L 581 3500 
L 1159 3500 
L 1159 2956 
Q 1366 3272 1645 3428 
Q 1925 3584 2291 3584 
Q 2894 3584 3203 3211 
Q 3513 2838 3513 2113 
z
" transform="scale(0.015625)"/>
     </defs>
     <use xlink:href="#DejaVuSans-36"/>
     <use xlink:href="#DejaVuSans-57" transform="translate(63.484375 0)"/>
     <use xlink:href="#DejaVuSans-58" transform="translate(102.6875 0)"/>
     <use xlink:href="#DejaVuSans-47" transform="translate(166.0625 0)"/>
     <use xlink:href="#DejaVuSans-5c" transform="translate(229.546875 0)"/>
     <use xlink:href="#DejaVuSans-3" transform="translate(288.734375 0)"/>
     <use xlink:href="#DejaVuSans-2b" transform="translate(320.515625 0)"/>
     <use xlink:href="#DejaVuSans-52" transform="translate(395.71875 0)"/>
     <use xlink:href="#DejaVuSans-58" transform="translate(456.90625 0)"/>
     <use xlink:href="#DejaVuSans-55" transform="translate(520.28125 0)"/>
     <use xlink:href="#DejaVuSans-56" transform="translate(561.390625 0)"/>
     <use xlink:href="#DejaVuSans-3" transform="translate(613.484375 0)"/>
     <use xlink:href="#DejaVuSans-59" transform="translate(645.265625 0)"/>
     <use xlink:href="#DejaVuSans-56" transform="translate(704.453125 0)"/>
     <use xlink:href="#DejaVuSans-3" transform="translate(756.546875 0)"/>
     <use xlink:href="#DejaVuSans-28" transform="translate(788.328125 0)"/>
     <use xlink:href="#DejaVuSans-5b" transform="translate(851.515625 0)"/>
     <use xlink:href="#DejaVuSans-44" transform="translate(910.703125 0)"/>
     <use xlink:href="#DejaVuSans-50" transform="translate(971.984375 0)"/>
     <use xlink:href="#DejaVuSans-3" transform="translate(1069.390625 0)"/>
     <use xlink:href="#DejaVuSans-9" transform="translate(1101.171875 0)"/>
     <use xlink:href="#DejaVuSans-3" transform="translate(1179.15625 0)"/>
     <use xlink:href="#DejaVuSans-24" transform="translate(1210.9375 0)"/>
     <use xlink:href="#DejaVuSans-56" transform="translate(1279.34375 0)"/>
     <use xlink:href="#DejaVuSans-56" transform="translate(1331.4375 0)"/>
     <use xlink:href="#DejaVuSans-4c" transform="translate(1383.53125 0)"/>
     <use xlink:href="#DejaVuSans-4a" transform="translate(1411.3125 0)"/>
     <use xlink:href="#DejaVuSans-51" transform="translate(1474.796875 0)"/>
     <use xlink:href="#DejaVuSans-50" transform="translate(1538.171875 0)"/>
     <use xlink:href="#DejaVuSans-48" transform="translate(1635.578125 0)"/>
     <use xlink:href="#DejaVuSans-51" transform="translate(1697.109375 0)"/>
     <use xlink:href="#DejaVuSans-57" transform="translate(1760.484375 0)"/>
     <use xlink:href="#DejaVuSans-3" transform="translate(1799.6875 0)"/>
     <use xlink:href="#DejaVuSans-36" transform="translate(1831.46875 0)"/>
     <use xlink:href="#DejaVuSans-46" transform="translate(1894.953125 0)"/>
     <use xlink:href="#DejaVuSans-52" transform="translate(1949.9375 0)"/>
     <use xlink:href="#DejaVuSans-55" transform="translate(2011.125 0)"/>
     <use xlink:href="#DejaVuSans-48" transform="translate(2050.03125 0)"/>
     <use xlink:href="#DejaVuSans-56" transform="translate(2111.5625 0)"/>
    </g>
   </g>
   <g id="legend_1">
    <g id="patch_7">
     <path d="M 58.24 64.161563 
L 185.511875 64.161563 
Q 187.511875 64.161563 187.511875 62.161563 
L 187.511875 33.16 
Q 187.511875 31.16 185.511875 31.16 
L 58.24 31.16 
Q 56.24 31.16 56.24 33.16 
L 56.24 62.161563 
Q 56.24 64.161563 58.24 64.161563 
z
" style="fill: #ffffff; opacity: 0.8; stroke: #cccccc; stroke-linejoin: miter"/>
    </g>
    <g id="PathCollection_3">
     <g>
      <use xlink:href="#me357a7dc1b" x="70.24" y="40.133438" style="fill: #4169e1; fill-opacity: 0.7; stroke: #4169e1; stroke-opacity: 0.7"/>
     </g>
    </g>
    <g id="text_15">
     <!-- Exam Scores -->
     <g transform="translate(88.24 42.758438) scale(0.1 -0.1)">
      <use xlink:href="#DejaVuSans-28"/>
      <use xlink:href="#DejaVuSans-5b" transform="translate(63.1875 0)"/>
      <use xlink:href="#DejaVuSans-44" transform="translate(122.375 0)"/>
      <use xlink:href="#DejaVuSans-50" transform="translate(183.65625 0)"/>
      <use xlink:href="#DejaVuSans-3" transform="translate(281.0625 0)"/>
      <use xlink:href="#DejaVuSans-36" transform="translate(312.84375 0)"/>
      <use xlink:href="#DejaVuSans-46" transform="translate(376.328125 0)"/>
      <use xlink:href="#DejaVuSans-52" transform="translate(431.3125 0)"/>
      <use xlink:href="#DejaVuSans-55" transform="translate(492.5 0)"/>
      <use xlink:href="#DejaVuSans-48" transform="translate(531.40625 0)"/>
      <use xlink:href="#DejaVuSans-56" transform="translate(592.9375 0)"/>
     </g>
    </g>
    <g id="PathCollection_4">
     <g>
      <use xlink:href="#mdf13c805ca" x="70.24" y="55.134219" style="fill: #ff6347; fill-opacity: 0.7; stroke: #ff6347; stroke-opacity: 0.7"/>
     </g>
    </g>
    <g id="text_16">
     <!-- Assignment Scores -->
     <g transform="translate(88.24 57.759219) scale(0.1 -0.1)">
      <use xlink:href="#DejaVuSans-24"/>
      <use xlink:href="#DejaVuSans-56" transform="translate(68.40625 0)"/>
      <use xlink:href="#DejaVuSans-56" transform="translate(120.5 0)"/>
      <use xlink:href="#DejaVuSans-4c" transform="translate(172.59375 0)"/>
      <use xlink:href="#DejaVuSans-4a" transform="translate(200.375 0)"/>
      <use xlink:href="#DejaVuSans-51" transform="translate(263.859375 0)"/>
      <use xlink:href="#DejaVuSans-50" transform="translate(327.234375 0)"/>
      <use xlink:href="#DejaVuSans-48" transform="translate(424.640625 0)"/>
      <use xlink:href="#DejaVuSans-51" transform="translate(486.171875 0)"/>
      <use xlink:href="#DejaVuSans-57" transform="translate(549.546875 0)"/>
      <use xlink:href="#DejaVuSans-3" transform="translate(588.75 0)"/>
      <use xlink:href="#DejaVuSans-36" transform="translate(620.53125 0)"/>
      <use xlink:href="#DejaVuSans-46" transform="translate(684.015625 0)"/>
      <use xlink:href="#DejaVuSans-52" transform="translate(739 0)"/>
      <use xlink:href="#DejaVuSans-55" transform="translate(800.1875 0)"/>
      <use xlink:href="#DejaVuSans-48" transform="translate(839.09375 0)"/>
      <use xlink:href="#DejaVuSans-56" transform="translate(900.625 0)"/>
     </g>
    </g>
   </g>
  </g>
 </g>
 <defs>
  <clipPath id="pbefa7de598">
   <rect x="51.24" y="26.16" width="513.96" height="291.717656"/>
  </clipPath>
 </defs>
</svg>
